<mxfile host="Electron" modified="2024-03-02T16:20:07.443Z" agent="Mozilla/5.0 (Macintosh; Intel Mac OS X 10_15_7) AppleWebKit/537.36 (KHTML, like Gecko) draw.io/23.1.5 Chrome/120.0.6099.109 Electron/28.1.0 Safari/537.36" etag="E3CwO-gdcLTvrcxVZe-Z" version="23.1.5" type="device">
  <diagram id="C5RBs43oDa-KdzZeNtuy" name="Page-1">
    <mxGraphModel dx="1781" dy="674" grid="1" gridSize="10" guides="1" tooltips="1" connect="1" arrows="1" fold="1" page="1" pageScale="1" pageWidth="827" pageHeight="1169" math="0" shadow="0">
      <root>
        <mxCell id="WIyWlLk6GJQsqaUBKTNV-0" />
        <mxCell id="WIyWlLk6GJQsqaUBKTNV-1" parent="WIyWlLk6GJQsqaUBKTNV-0" />
        <mxCell id="N3lne-iC4qnDn-1WreuR-3" value="" style="shape=image;imageAspect=0;aspect=fixed;verticalLabelPosition=bottom;verticalAlign=top;image=https://media.discordapp.net/attachments/1203176589966311484/1211099797151416370/image.png?ex=65ecf794&amp;is=65da8294&amp;hm=80b384c1ca638633fb36524f6d2c1fe47c9ef8edc5a12f80d1704511d9779f77&amp;=&amp;width=1406&amp;height=1478;" vertex="1" parent="WIyWlLk6GJQsqaUBKTNV-1">
          <mxGeometry x="160" y="660" width="218.94" height="230" as="geometry" />
        </mxCell>
        <mxCell id="N3lne-iC4qnDn-1WreuR-6" value="convo_history.json" style="shape=table;startSize=30;container=1;collapsible=0;childLayout=tableLayout;strokeColor=default;fontSize=10;" vertex="1" parent="WIyWlLk6GJQsqaUBKTNV-1">
          <mxGeometry x="212.97" y="380" width="113" height="115" as="geometry" />
        </mxCell>
        <mxCell id="N3lne-iC4qnDn-1WreuR-7" value="" style="shape=tableRow;horizontal=0;startSize=0;swimlaneHead=0;swimlaneBody=0;strokeColor=inherit;top=0;left=0;bottom=0;right=0;collapsible=0;dropTarget=0;fillColor=none;points=[[0,0.5],[1,0.5]];portConstraint=eastwest;fontSize=16;" vertex="1" parent="N3lne-iC4qnDn-1WreuR-6">
          <mxGeometry y="30" width="113" height="20" as="geometry" />
        </mxCell>
        <mxCell id="N3lne-iC4qnDn-1WreuR-8" value="Role" style="shape=partialRectangle;html=1;whiteSpace=wrap;connectable=0;strokeColor=inherit;overflow=hidden;fillColor=none;top=0;left=0;bottom=0;right=0;pointerEvents=1;fontSize=10;" vertex="1" parent="N3lne-iC4qnDn-1WreuR-7">
          <mxGeometry width="57" height="20" as="geometry">
            <mxRectangle width="57" height="20" as="alternateBounds" />
          </mxGeometry>
        </mxCell>
        <mxCell id="N3lne-iC4qnDn-1WreuR-9" value="content" style="shape=partialRectangle;html=1;whiteSpace=wrap;connectable=0;strokeColor=inherit;overflow=hidden;fillColor=none;top=0;left=0;bottom=0;right=0;pointerEvents=1;fontSize=10;" vertex="1" parent="N3lne-iC4qnDn-1WreuR-7">
          <mxGeometry x="57" width="56" height="20" as="geometry">
            <mxRectangle width="56" height="20" as="alternateBounds" />
          </mxGeometry>
        </mxCell>
        <mxCell id="N3lne-iC4qnDn-1WreuR-11" value="" style="shape=tableRow;horizontal=0;startSize=0;swimlaneHead=0;swimlaneBody=0;strokeColor=inherit;top=0;left=0;bottom=0;right=0;collapsible=0;dropTarget=0;fillColor=none;points=[[0,0.5],[1,0.5]];portConstraint=eastwest;fontSize=16;" vertex="1" parent="N3lne-iC4qnDn-1WreuR-6">
          <mxGeometry y="50" width="113" height="27" as="geometry" />
        </mxCell>
        <mxCell id="N3lne-iC4qnDn-1WreuR-12" value="User" style="shape=partialRectangle;html=1;whiteSpace=wrap;connectable=0;strokeColor=inherit;overflow=hidden;fillColor=none;top=0;left=0;bottom=0;right=0;pointerEvents=1;fontSize=10;" vertex="1" parent="N3lne-iC4qnDn-1WreuR-11">
          <mxGeometry width="57" height="27" as="geometry">
            <mxRectangle width="57" height="27" as="alternateBounds" />
          </mxGeometry>
        </mxCell>
        <mxCell id="N3lne-iC4qnDn-1WreuR-13" value="string" style="shape=partialRectangle;html=1;whiteSpace=wrap;connectable=0;strokeColor=inherit;overflow=hidden;fillColor=none;top=0;left=0;bottom=0;right=0;pointerEvents=1;fontSize=10;" vertex="1" parent="N3lne-iC4qnDn-1WreuR-11">
          <mxGeometry x="57" width="56" height="27" as="geometry">
            <mxRectangle width="56" height="27" as="alternateBounds" />
          </mxGeometry>
        </mxCell>
        <mxCell id="N3lne-iC4qnDn-1WreuR-15" value="" style="shape=tableRow;horizontal=0;startSize=0;swimlaneHead=0;swimlaneBody=0;strokeColor=inherit;top=0;left=0;bottom=0;right=0;collapsible=0;dropTarget=0;fillColor=none;points=[[0,0.5],[1,0.5]];portConstraint=eastwest;fontSize=16;" vertex="1" parent="N3lne-iC4qnDn-1WreuR-6">
          <mxGeometry y="77" width="113" height="38" as="geometry" />
        </mxCell>
        <mxCell id="N3lne-iC4qnDn-1WreuR-16" value="Assistant" style="shape=partialRectangle;html=1;whiteSpace=wrap;connectable=0;strokeColor=inherit;overflow=hidden;fillColor=none;top=0;left=0;bottom=0;right=0;pointerEvents=1;fontSize=10;" vertex="1" parent="N3lne-iC4qnDn-1WreuR-15">
          <mxGeometry width="57" height="38" as="geometry">
            <mxRectangle width="57" height="38" as="alternateBounds" />
          </mxGeometry>
        </mxCell>
        <mxCell id="N3lne-iC4qnDn-1WreuR-17" value="string" style="shape=partialRectangle;html=1;whiteSpace=wrap;connectable=0;strokeColor=inherit;overflow=hidden;fillColor=none;top=0;left=0;bottom=0;right=0;pointerEvents=1;fontSize=10;" vertex="1" parent="N3lne-iC4qnDn-1WreuR-15">
          <mxGeometry x="57" width="56" height="38" as="geometry">
            <mxRectangle width="56" height="38" as="alternateBounds" />
          </mxGeometry>
        </mxCell>
        <mxCell id="N3lne-iC4qnDn-1WreuR-26" style="edgeStyle=orthogonalEdgeStyle;rounded=0;orthogonalLoop=1;jettySize=auto;html=1;entryX=0.518;entryY=1.016;entryDx=0;entryDy=0;entryPerimeter=0;" edge="1" parent="WIyWlLk6GJQsqaUBKTNV-1" source="N3lne-iC4qnDn-1WreuR-3" target="N3lne-iC4qnDn-1WreuR-15">
          <mxGeometry relative="1" as="geometry" />
        </mxCell>
        <mxCell id="N3lne-iC4qnDn-1WreuR-30" value="Insert user response" style="edgeLabel;html=1;align=center;verticalAlign=middle;resizable=0;points=[];" vertex="1" connectable="0" parent="N3lne-iC4qnDn-1WreuR-26">
          <mxGeometry x="0.0383" y="-2" relative="1" as="geometry">
            <mxPoint as="offset" />
          </mxGeometry>
        </mxCell>
        <mxCell id="N3lne-iC4qnDn-1WreuR-56" style="edgeStyle=orthogonalEdgeStyle;rounded=0;orthogonalLoop=1;jettySize=auto;html=1;entryX=0.5;entryY=0;entryDx=0;entryDy=0;" edge="1" parent="WIyWlLk6GJQsqaUBKTNV-1" source="N3lne-iC4qnDn-1WreuR-27" target="N3lne-iC4qnDn-1WreuR-54">
          <mxGeometry relative="1" as="geometry" />
        </mxCell>
        <mxCell id="N3lne-iC4qnDn-1WreuR-66" value="GPT_output" style="edgeLabel;html=1;align=center;verticalAlign=middle;resizable=0;points=[];" vertex="1" connectable="0" parent="N3lne-iC4qnDn-1WreuR-56">
          <mxGeometry x="-0.1539" relative="1" as="geometry">
            <mxPoint as="offset" />
          </mxGeometry>
        </mxCell>
        <mxCell id="N3lne-iC4qnDn-1WreuR-27" value="GPT_3.5" style="shape=cylinder3;whiteSpace=wrap;html=1;boundedLbl=1;backgroundOutline=1;size=15;fillColor=#a20025;fontColor=#ffffff;strokeColor=#6F0000;" vertex="1" parent="WIyWlLk6GJQsqaUBKTNV-1">
          <mxGeometry x="230" y="170" width="60" height="80" as="geometry" />
        </mxCell>
        <mxCell id="N3lne-iC4qnDn-1WreuR-28" style="edgeStyle=orthogonalEdgeStyle;rounded=0;orthogonalLoop=1;jettySize=auto;html=1;entryX=0.5;entryY=1;entryDx=0;entryDy=0;entryPerimeter=0;" edge="1" parent="WIyWlLk6GJQsqaUBKTNV-1" source="N3lne-iC4qnDn-1WreuR-6" target="N3lne-iC4qnDn-1WreuR-27">
          <mxGeometry relative="1" as="geometry" />
        </mxCell>
        <mxCell id="N3lne-iC4qnDn-1WreuR-75" value="Send whole message history to gpt" style="edgeLabel;html=1;align=center;verticalAlign=middle;resizable=0;points=[];" vertex="1" connectable="0" parent="N3lne-iC4qnDn-1WreuR-28">
          <mxGeometry x="-0.1261" y="3" relative="1" as="geometry">
            <mxPoint y="-1" as="offset" />
          </mxGeometry>
        </mxCell>
        <mxCell id="N3lne-iC4qnDn-1WreuR-62" style="edgeStyle=orthogonalEdgeStyle;rounded=0;orthogonalLoop=1;jettySize=auto;html=1;entryX=0.5;entryY=0;entryDx=0;entryDy=0;" edge="1" parent="WIyWlLk6GJQsqaUBKTNV-1" source="N3lne-iC4qnDn-1WreuR-41" target="N3lne-iC4qnDn-1WreuR-61">
          <mxGeometry relative="1" as="geometry" />
        </mxCell>
        <mxCell id="N3lne-iC4qnDn-1WreuR-41" value="Data_table" style="shape=table;startSize=20;container=1;collapsible=0;childLayout=tableLayout;strokeColor=default;fontSize=10;" vertex="1" parent="WIyWlLk6GJQsqaUBKTNV-1">
          <mxGeometry x="-500" y="491" width="250" height="93" as="geometry" />
        </mxCell>
        <mxCell id="N3lne-iC4qnDn-1WreuR-42" value="" style="shape=tableRow;horizontal=0;startSize=0;swimlaneHead=0;swimlaneBody=0;strokeColor=inherit;top=0;left=0;bottom=0;right=0;collapsible=0;dropTarget=0;fillColor=none;points=[[0,0.5],[1,0.5]];portConstraint=eastwest;fontSize=16;" vertex="1" parent="N3lne-iC4qnDn-1WreuR-41">
          <mxGeometry y="20" width="250" height="30" as="geometry" />
        </mxCell>
        <mxCell id="N3lne-iC4qnDn-1WreuR-43" value="Index" style="shape=partialRectangle;html=1;whiteSpace=wrap;connectable=0;strokeColor=inherit;overflow=hidden;fillColor=none;top=0;left=0;bottom=0;right=0;pointerEvents=1;fontSize=10;" vertex="1" parent="N3lne-iC4qnDn-1WreuR-42">
          <mxGeometry width="84" height="30" as="geometry">
            <mxRectangle width="84" height="30" as="alternateBounds" />
          </mxGeometry>
        </mxCell>
        <mxCell id="N3lne-iC4qnDn-1WreuR-44" value="Story" style="shape=partialRectangle;html=1;whiteSpace=wrap;connectable=0;strokeColor=inherit;overflow=hidden;fillColor=none;top=0;left=0;bottom=0;right=0;pointerEvents=1;fontSize=10;" vertex="1" parent="N3lne-iC4qnDn-1WreuR-42">
          <mxGeometry x="84" width="83" height="30" as="geometry">
            <mxRectangle width="83" height="30" as="alternateBounds" />
          </mxGeometry>
        </mxCell>
        <mxCell id="N3lne-iC4qnDn-1WreuR-51" value="image" style="shape=partialRectangle;html=1;whiteSpace=wrap;connectable=0;strokeColor=inherit;overflow=hidden;fillColor=none;top=0;left=0;bottom=0;right=0;pointerEvents=1;fontSize=10;" vertex="1" parent="N3lne-iC4qnDn-1WreuR-42">
          <mxGeometry x="167" width="83" height="30" as="geometry">
            <mxRectangle width="83" height="30" as="alternateBounds" />
          </mxGeometry>
        </mxCell>
        <mxCell id="N3lne-iC4qnDn-1WreuR-45" value="" style="shape=tableRow;horizontal=0;startSize=0;swimlaneHead=0;swimlaneBody=0;strokeColor=inherit;top=0;left=0;bottom=0;right=0;collapsible=0;dropTarget=0;fillColor=none;points=[[0,0.5],[1,0.5]];portConstraint=eastwest;fontSize=16;" vertex="1" parent="N3lne-iC4qnDn-1WreuR-41">
          <mxGeometry y="50" width="250" height="43" as="geometry" />
        </mxCell>
        <mxCell id="N3lne-iC4qnDn-1WreuR-46" value="Integer" style="shape=partialRectangle;html=1;whiteSpace=wrap;connectable=0;strokeColor=inherit;overflow=hidden;fillColor=none;top=0;left=0;bottom=0;right=0;pointerEvents=1;fontSize=10;" vertex="1" parent="N3lne-iC4qnDn-1WreuR-45">
          <mxGeometry width="84" height="43" as="geometry">
            <mxRectangle width="84" height="43" as="alternateBounds" />
          </mxGeometry>
        </mxCell>
        <mxCell id="N3lne-iC4qnDn-1WreuR-47" value="string" style="shape=partialRectangle;html=1;whiteSpace=wrap;connectable=0;strokeColor=inherit;overflow=hidden;fillColor=none;top=0;left=0;bottom=0;right=0;pointerEvents=1;fontSize=10;" vertex="1" parent="N3lne-iC4qnDn-1WreuR-45">
          <mxGeometry x="84" width="83" height="43" as="geometry">
            <mxRectangle width="83" height="43" as="alternateBounds" />
          </mxGeometry>
        </mxCell>
        <mxCell id="N3lne-iC4qnDn-1WreuR-52" value="Base64-encoded string." style="shape=partialRectangle;html=1;whiteSpace=wrap;connectable=0;strokeColor=inherit;overflow=hidden;fillColor=none;top=0;left=0;bottom=0;right=0;pointerEvents=1;fontSize=10;" vertex="1" parent="N3lne-iC4qnDn-1WreuR-45">
          <mxGeometry x="167" width="83" height="43" as="geometry">
            <mxRectangle width="83" height="43" as="alternateBounds" />
          </mxGeometry>
        </mxCell>
        <mxCell id="N3lne-iC4qnDn-1WreuR-57" style="edgeStyle=orthogonalEdgeStyle;rounded=0;orthogonalLoop=1;jettySize=auto;html=1;entryX=0.5;entryY=0;entryDx=0;entryDy=0;" edge="1" parent="WIyWlLk6GJQsqaUBKTNV-1" source="N3lne-iC4qnDn-1WreuR-54" target="N3lne-iC4qnDn-1WreuR-41">
          <mxGeometry relative="1" as="geometry" />
        </mxCell>
        <mxCell id="N3lne-iC4qnDn-1WreuR-58" value="Insert story" style="edgeLabel;html=1;align=center;verticalAlign=middle;resizable=0;points=[];" vertex="1" connectable="0" parent="N3lne-iC4qnDn-1WreuR-57">
          <mxGeometry x="0.0191" y="-4" relative="1" as="geometry">
            <mxPoint as="offset" />
          </mxGeometry>
        </mxCell>
        <mxCell id="N3lne-iC4qnDn-1WreuR-82" style="edgeStyle=orthogonalEdgeStyle;rounded=0;orthogonalLoop=1;jettySize=auto;html=1;entryX=0;entryY=0.5;entryDx=0;entryDy=0;" edge="1" parent="WIyWlLk6GJQsqaUBKTNV-1" source="N3lne-iC4qnDn-1WreuR-54" target="N3lne-iC4qnDn-1WreuR-3">
          <mxGeometry relative="1" as="geometry" />
        </mxCell>
        <mxCell id="N3lne-iC4qnDn-1WreuR-83" value="All data" style="edgeLabel;html=1;align=center;verticalAlign=middle;resizable=0;points=[];" vertex="1" connectable="0" parent="N3lne-iC4qnDn-1WreuR-82">
          <mxGeometry x="0.0717" y="2" relative="1" as="geometry">
            <mxPoint as="offset" />
          </mxGeometry>
        </mxCell>
        <mxCell id="N3lne-iC4qnDn-1WreuR-54" value="parse_function" style="swimlane;whiteSpace=wrap;html=1;" vertex="1" parent="WIyWlLk6GJQsqaUBKTNV-1">
          <mxGeometry x="-170" y="397.5" width="200" height="80" as="geometry" />
        </mxCell>
        <mxCell id="N3lne-iC4qnDn-1WreuR-55" value="&lt;div style=&quot;text-align: left;&quot;&gt;Parse data into:&lt;/div&gt;&lt;div style=&quot;text-align: left;&quot;&gt;&lt;span style=&quot;background-color: initial;&quot;&gt;Story, action1, action2, action3&lt;/span&gt;&lt;/div&gt;" style="text;html=1;align=center;verticalAlign=middle;resizable=0;points=[];autosize=1;strokeColor=none;fillColor=none;" vertex="1" parent="N3lne-iC4qnDn-1WreuR-54">
          <mxGeometry x="5" y="30" width="190" height="40" as="geometry" />
        </mxCell>
        <mxCell id="N3lne-iC4qnDn-1WreuR-73" style="edgeStyle=orthogonalEdgeStyle;rounded=0;orthogonalLoop=1;jettySize=auto;html=1;entryX=0.5;entryY=1;entryDx=0;entryDy=0;" edge="1" parent="WIyWlLk6GJQsqaUBKTNV-1" source="N3lne-iC4qnDn-1WreuR-61" target="N3lne-iC4qnDn-1WreuR-3">
          <mxGeometry relative="1" as="geometry">
            <Array as="points">
              <mxPoint x="-375" y="1080" />
              <mxPoint x="270" y="1080" />
            </Array>
          </mxGeometry>
        </mxCell>
        <mxCell id="N3lne-iC4qnDn-1WreuR-74" value="Output all" style="edgeLabel;html=1;align=center;verticalAlign=middle;resizable=0;points=[];" vertex="1" connectable="0" parent="N3lne-iC4qnDn-1WreuR-73">
          <mxGeometry x="-0.0189" y="3" relative="1" as="geometry">
            <mxPoint as="offset" />
          </mxGeometry>
        </mxCell>
        <mxCell id="N3lne-iC4qnDn-1WreuR-61" value="End of iteration?" style="rhombus;whiteSpace=wrap;html=1;" vertex="1" parent="WIyWlLk6GJQsqaUBKTNV-1">
          <mxGeometry x="-427.5" y="725" width="105" height="100" as="geometry" />
        </mxCell>
        <mxCell id="N3lne-iC4qnDn-1WreuR-85" style="edgeStyle=orthogonalEdgeStyle;rounded=0;orthogonalLoop=1;jettySize=auto;html=1;entryX=0;entryY=0.5;entryDx=0;entryDy=0;" edge="1" parent="WIyWlLk6GJQsqaUBKTNV-1" source="N3lne-iC4qnDn-1WreuR-67" target="N3lne-iC4qnDn-1WreuR-3">
          <mxGeometry relative="1" as="geometry">
            <Array as="points">
              <mxPoint x="160" y="785" />
            </Array>
          </mxGeometry>
        </mxCell>
        <mxCell id="N3lne-iC4qnDn-1WreuR-86" value="Image" style="edgeLabel;html=1;align=center;verticalAlign=middle;resizable=0;points=[];" vertex="1" connectable="0" parent="N3lne-iC4qnDn-1WreuR-85">
          <mxGeometry x="-0.2964" relative="1" as="geometry">
            <mxPoint as="offset" />
          </mxGeometry>
        </mxCell>
        <mxCell id="N3lne-iC4qnDn-1WreuR-67" value="Image model" style="shape=cylinder3;whiteSpace=wrap;html=1;boundedLbl=1;backgroundOutline=1;size=15;fillColor=#a20025;fontColor=#ffffff;strokeColor=#6F0000;" vertex="1" parent="WIyWlLk6GJQsqaUBKTNV-1">
          <mxGeometry x="-143" y="745" width="60" height="80" as="geometry" />
        </mxCell>
        <mxCell id="N3lne-iC4qnDn-1WreuR-68" style="edgeStyle=orthogonalEdgeStyle;rounded=0;orthogonalLoop=1;jettySize=auto;html=1;entryX=0.5;entryY=0;entryDx=0;entryDy=0;entryPerimeter=0;" edge="1" parent="WIyWlLk6GJQsqaUBKTNV-1" source="N3lne-iC4qnDn-1WreuR-54" target="N3lne-iC4qnDn-1WreuR-67">
          <mxGeometry relative="1" as="geometry">
            <Array as="points">
              <mxPoint x="-113" y="540" />
              <mxPoint x="-113" y="540" />
            </Array>
          </mxGeometry>
        </mxCell>
        <mxCell id="N3lne-iC4qnDn-1WreuR-69" value="Story as prompt" style="edgeLabel;html=1;align=center;verticalAlign=middle;resizable=0;points=[];" vertex="1" connectable="0" parent="N3lne-iC4qnDn-1WreuR-68">
          <mxGeometry x="0.2369" y="2" relative="1" as="geometry">
            <mxPoint as="offset" />
          </mxGeometry>
        </mxCell>
        <mxCell id="N3lne-iC4qnDn-1WreuR-77" style="edgeStyle=orthogonalEdgeStyle;rounded=0;orthogonalLoop=1;jettySize=auto;html=1;entryX=0.988;entryY=0;entryDx=0;entryDy=0;entryPerimeter=0;" edge="1" parent="WIyWlLk6GJQsqaUBKTNV-1" source="N3lne-iC4qnDn-1WreuR-67" target="N3lne-iC4qnDn-1WreuR-45">
          <mxGeometry relative="1" as="geometry">
            <mxPoint x="-290" y="785.8699999999999" as="targetPoint" />
            <Array as="points">
              <mxPoint x="-216" y="785" />
              <mxPoint x="-216" y="541" />
            </Array>
          </mxGeometry>
        </mxCell>
        <mxCell id="N3lne-iC4qnDn-1WreuR-78" value="Insert image" style="edgeLabel;html=1;align=center;verticalAlign=middle;resizable=0;points=[];" vertex="1" connectable="0" parent="N3lne-iC4qnDn-1WreuR-77">
          <mxGeometry x="-0.1526" y="3" relative="1" as="geometry">
            <mxPoint as="offset" />
          </mxGeometry>
        </mxCell>
        <mxCell id="N3lne-iC4qnDn-1WreuR-81" style="edgeStyle=orthogonalEdgeStyle;rounded=0;orthogonalLoop=1;jettySize=auto;html=1;entryX=-0.044;entryY=0.222;entryDx=0;entryDy=0;entryPerimeter=0;" edge="1" parent="WIyWlLk6GJQsqaUBKTNV-1" source="N3lne-iC4qnDn-1WreuR-54" target="N3lne-iC4qnDn-1WreuR-11">
          <mxGeometry relative="1" as="geometry" />
        </mxCell>
      </root>
    </mxGraphModel>
  </diagram>
</mxfile>
